<?xml version="1.0" encoding="iso-8859-1"?>
<!-- Generator: Adobe Illustrator 19.0.0, SVG Export Plug-In . SVG Version: 6.00 Build 0)  -->
<svg version="1.1" id="Capa_1" xmlns="http://www.w3.org/2000/svg" xmlns:xlink="http://www.w3.org/1999/xlink" x="0px" y="0px"
	 viewBox="0 0 512 512" style="enable-background:new 0 0 512 512;" xml:space="preserve">
<path style="fill:#00C8C8;" d="M68.094,443.906c5.939,5.939,5.94,15.273,0,21.213l-42.426,42.426c-5.94,5.94-15.274,5.939-21.213,0
	c-5.94-5.94-5.94-15.273,0-21.213l42.426-42.426C52.821,437.965,62.154,437.965,68.094,443.906z"/>
<path style="fill:#00A1B2;" d="M152.947,465.119l-42.426,42.426c-5.863,5.863-15.351,5.863-21.213,0s-5.863-15.351,0-21.213
	l42.426-42.426c5.863-5.863,15.351-5.863,21.213,0S158.809,459.256,152.947,465.119z"/>
<path style="fill:#00C8C8;" d="M68.094,380.266l-42.426,42.426c-5.863,5.863-15.351,5.863-21.213,0
	c-5.863-5.863-5.863-15.351,0-21.213l42.426-42.426c5.863-5.863,15.351-5.863,21.213,0S73.956,374.403,68.094,380.266z"/>
<path style="fill:#E1F1FA;" d="M479.597,155.275L252.44,185.327l-31.82,225.391l17.737,39.248c9.983-0.994,19.71-5.1,27.341-12.731
	L499.043,203.89c7.631-7.631,11.737-17.359,12.731-27.341L479.597,155.275z"/>
<g>
	<path style="fill:#BFE1FF;" d="M259.758,252.255l0.423,0.423l-21.637,197.283c-13.152,1.274-26.517-2.758-36.486-12.727
		L74.779,309.955c-8.486-8.486-12.729-19.516-12.941-30.759l115.614-77.004L259.758,252.255z"/>
	<path style="fill:#BFE1FF;" d="M371.764,12.97l127.279,127.279c9.97,9.97,14.001,23.334,12.727,36.486l-197.283,21.637
		l-0.212-0.634L276.728,91.034l64.277-91.005C352.248,0.241,363.278,4.484,371.764,12.97z"/>
</g>
<path style="fill:#00A1B2;" d="M4.454,507.545l63.64-63.64c5.939,5.939,5.94,15.273,0,21.213l-42.426,42.426
	C19.727,513.486,10.393,513.484,4.454,507.545z"/>
<g>
	<path style="fill:#BFE1FF;" d="M138.419,373.594l121.339-121.339l0.423,0.423l-21.637,197.283
		c-13.152,1.274-26.517-2.758-36.486-12.727L138.419,373.594z"/>
	<path style="fill:#BFE1FF;" d="M435.404,76.609l63.64,63.64c9.97,9.97,14.001,23.334,12.727,36.486l-197.283,21.637l-0.212-0.634
		L435.404,76.609z"/>
</g>
<path style="fill:#FF281D;" d="M341.005,0.029L314.913,197.1l-3.607,26.517c-1.908,13.364-12.515,23.971-25.879,25.879
	l-26.517,3.607L61.838,279.195c-0.423-11.879,3.82-23.759,12.941-32.88L308.124,12.97C317.246,3.848,329.125-0.395,341.005,0.029z"
	/>
</svg>
